<svg width="30" height="30" viewBox="0 0 30 30" fill="none" xmlns="http://www.w3.org/2000/svg">
<path d="M13.9125 19.85C13.6 19.85 13.2875 19.6875 13.1125 19.4C12.85 18.9625 12.9875 18.375 13.4375 18.1125L14.55 17.45V16.1C14.55 15.5875 14.975 15.1625 15.4875 15.1625C16 15.1625 16.425 15.5875 16.425 16.1V17.975C16.425 18.3 16.25 18.6125 15.975 18.775L14.4125 19.7125C14.2375 19.8 14.075 19.85 13.9125 19.85Z" fill="#0065FF"/>
<path d="M26.3625 8.7249C25.3 7.5499 23.5375 6.9624 20.95 6.9624H20.65V6.9124C20.65 4.8124 20.65 2.2124 15.95 2.2124H14.05C9.35002 2.2124 9.35002 4.8124 9.35002 6.9124V6.9624H9.05002C6.46252 6.9624 4.68752 7.5499 3.63752 8.7249C2.40002 10.1124 2.43752 11.9499 2.56252 13.2124L2.57502 13.2999L2.6666 14.3684C2.6798 14.5223 2.76338 14.6616 2.89306 14.7456C3.26245 14.9849 3.65884 15.2395 4.03752 15.4499C4.21252 15.5624 4.40002 15.6624 4.58752 15.7624C6.00002 16.5374 7.51252 17.1499 9.06252 17.5749C9.10002 20.8124 11.75 23.4374 15 23.4374C18.275 23.4374 20.9375 20.7749 20.9375 17.4999V17.4499C22.5125 16.9749 24.025 16.3124 25.4375 15.4874C25.5125 15.4499 25.5625 15.4124 25.625 15.3749C26.1347 15.0979 26.664 14.7326 27.1433 14.392C27.2591 14.3097 27.334 14.1817 27.3497 14.0405L27.375 13.8124L27.4375 13.2249C27.45 13.1499 27.45 13.0874 27.4625 12.9999C27.5625 11.7499 27.5375 10.0249 26.3625 8.7249ZM11.1375 6.9124C11.1375 4.7874 11.1375 3.9874 14.05 3.9874H15.95C18.8625 3.9874 18.8625 4.7874 18.8625 6.9124V6.9624H11.1375V6.9124ZM15 21.5624C12.9375 21.5624 11.225 20.0124 10.975 18.0124C10.95 17.8499 10.9375 17.6749 10.9375 17.4999C10.9375 15.2624 12.7625 13.4374 15 13.4374C17.2375 13.4374 19.0625 15.2624 19.0625 17.4999C19.0625 17.6499 19.05 17.7874 19.0375 17.9249V17.9374C18.8125 19.9749 17.0875 21.5624 15 21.5624Z" fill="#0065FF"/>
<path d="M26.2999 17.1625C26.6108 16.9898 27.0141 17.2401 26.9817 17.5942L26.5374 22.45C26.2749 24.95 25.2499 27.5 19.7499 27.5H10.2249C4.72491 27.5 3.69991 24.95 3.44991 22.4625L3.01757 17.8334C2.98401 17.474 3.36839 17.2311 3.68741 17.4V17.4C4.66241 17.9375 5.67491 18.4125 6.71241 18.7875C7.09991 18.925 7.37491 19.25 7.48741 19.65C8.42491 22.9 11.4499 25.3125 14.9999 25.3125C18.6124 25.3125 21.6624 22.85 22.5499 19.475C22.6499 19.075 22.9249 18.75 23.3124 18.6C24.3624 18.1875 25.3624 17.7 26.2999 17.1625V17.1625Z" fill="#0065FF"/>
</svg>
