<svg width="30" height="30" viewBox="0 0 30 30" fill="none" xmlns="http://www.w3.org/2000/svg">
<path d="M24.05 6.97495H23.55L19.325 2.74995C18.9875 2.41245 18.4375 2.41245 18.0875 2.74995C17.75 3.08745 17.75 3.63745 18.0875 3.98745L21.075 6.97495H8.925L11.9125 3.98745C12.25 3.64995 12.25 3.09995 11.9125 2.74995C11.575 2.41245 11.025 2.41245 10.675 2.74995L6.4625 6.97495H5.9625C4.8375 6.97495 2.5 6.97495 2.5 10.175C2.5 11.3875 2.75 12.1875 3.275 12.7125C3.575 13.025 3.9375 13.1875 4.325 13.275C4.6875 13.3625 5.075 13.375 5.45 13.375H24.55C24.9375 13.375 25.3 13.35 25.65 13.275C26.7 13.025 27.5 12.275 27.5 10.175C27.5 6.97495 25.1625 6.97495 24.05 6.97495Z" fill="#36DAFE"/>
<path d="M23.8124 15H6.08739C5.31239 15 4.72489 15.6875 4.84989 16.45L5.89989 22.875C6.24989 25.025 7.18739 27.5 11.3499 27.5H18.3624C22.5749 27.5 23.3249 25.3875 23.7749 23.025L25.0374 16.4875C25.1874 15.7125 24.5999 15 23.8124 15ZM13.2624 23.0625C13.2624 23.55 12.8749 23.9375 12.3999 23.9375C11.9124 23.9375 11.5249 23.55 11.5249 23.0625V18.9375C11.5249 18.4625 11.9124 18.0625 12.3999 18.0625C12.8749 18.0625 13.2624 18.4625 13.2624 18.9375V23.0625ZM18.6124 23.0625C18.6124 23.55 18.2249 23.9375 17.7374 23.9375C17.2624 23.9375 16.8624 23.55 16.8624 23.0625V18.9375C16.8624 18.4625 17.2624 18.0625 17.7374 18.0625C18.2249 18.0625 18.6124 18.4625 18.6124 18.9375V23.0625Z" fill="#36DAFE"/>
</svg>
