<svg width="30" height="30" viewBox="0 0 30 30" fill="none" xmlns="http://www.w3.org/2000/svg">
<path d="M23.175 5.15005L16.3 2.57505C15.5875 2.31255 14.425 2.31255 13.7125 2.57505L6.8375 5.15005C5.5125 5.65005 4.4375 7.20005 4.4375 8.61255V18.7375C4.4375 19.75 5.1 21.0875 5.9125 21.6875L12.7875 26.825C14 27.7375 15.9875 27.7375 17.2 26.825L24.075 21.6875C24.8875 21.075 25.55 19.75 25.55 18.7375V8.61255C25.5625 7.20005 24.4875 5.65005 23.175 5.15005ZM18.35 17.4625C18.1625 17.65 17.925 17.7375 17.6875 17.7375C17.45 17.7375 17.2125 17.65 17.025 17.4625L15.0375 15.475L12.9875 17.525C12.8 17.7125 12.5625 17.8 12.325 17.8C12.0875 17.8 11.85 17.7125 11.6625 17.525C11.3 17.1625 11.3 16.5625 11.6625 16.2L13.7125 14.15L11.7125 12.15C11.35 11.7875 11.35 11.1875 11.7125 10.825C12.075 10.4625 12.675 10.4625 13.0375 10.825L15.025 12.8125L16.9625 10.875C17.325 10.5125 17.925 10.5125 18.2875 10.875C18.65 11.2375 18.65 11.8375 18.2875 12.2L16.35 14.1375L18.3375 16.125C18.7125 16.5 18.7125 17.0875 18.35 17.4625Z" fill="#FF3F3F"/>
</svg>
