<svg width="4" height="16" viewBox="0 0 4 16" fill="none" xmlns="http://www.w3.org/2000/svg">
<path d="M2.00008 4.33329C3.00841 4.33329 3.83342 3.50829 3.83342 2.49996C3.83342 1.49163 3.00841 0.666626 2.00008 0.666626C0.991748 0.666626 0.166748 1.49163 0.166748 2.49996C0.166748 3.50829 0.991748 4.33329 2.00008 4.33329ZM2.00008 6.16663C0.991748 6.16663 0.166748 6.99163 0.166748 7.99996C0.166748 9.00829 0.991748 9.83329 2.00008 9.83329C3.00841 9.83329 3.83342 9.00829 3.83342 7.99996C3.83342 6.99163 3.00841 6.16663 2.00008 6.16663ZM2.00008 11.6666C0.991748 11.6666 0.166748 12.4916 0.166748 13.5C0.166748 14.5083 0.991748 15.3333 2.00008 15.3333C3.00841 15.3333 3.83342 14.5083 3.83342 13.5C3.83342 12.4916 3.00841 11.6666 2.00008 11.6666Z" fill="#B6B4BA"/>
</svg>
