<svg width="28" height="28" viewBox="0 0 28 28" fill="none" xmlns="http://www.w3.org/2000/svg">
<path opacity="0.3" d="M8.16675 4.66663H5.83341C5.18908 4.66663 4.66675 5.18896 4.66675 5.83329V8.16663C4.66675 8.81096 5.18908 9.33329 5.83341 9.33329H8.16675C8.81108 9.33329 9.33342 8.81096 9.33342 8.16663V5.83329C9.33342 5.18896 8.81108 4.66663 8.16675 4.66663Z" fill="#B0B7C3"/>
<path fill-rule="evenodd" clip-rule="evenodd" d="M5.83341 11.6666H8.16675C8.81108 11.6666 9.33341 12.189 9.33341 12.8333V15.1666C9.33341 15.811 8.81108 16.3333 8.16675 16.3333H5.83341C5.18908 16.3333 4.66675 15.811 4.66675 15.1666V12.8333C4.66675 12.189 5.18908 11.6666 5.83341 11.6666ZM12.8334 4.66663H15.1667C15.8111 4.66663 16.3334 5.18896 16.3334 5.83329V8.16663C16.3334 8.81096 15.8111 9.33329 15.1667 9.33329H12.8334C12.1891 9.33329 11.6667 8.81096 11.6667 8.16663V5.83329C11.6667 5.18896 12.1891 4.66663 12.8334 4.66663ZM12.8334 11.6666H15.1667C15.8111 11.6666 16.3334 12.189 16.3334 12.8333V15.1666C16.3334 15.811 15.8111 16.3333 15.1667 16.3333H12.8334C12.1891 16.3333 11.6667 15.811 11.6667 15.1666V12.8333C11.6667 12.189 12.1891 11.6666 12.8334 11.6666ZM19.8334 4.66663H22.1667C22.8111 4.66663 23.3334 5.18896 23.3334 5.83329V8.16663C23.3334 8.81096 22.8111 9.33329 22.1667 9.33329H19.8334C19.1891 9.33329 18.6667 8.81096 18.6667 8.16663V5.83329C18.6667 5.18896 19.1891 4.66663 19.8334 4.66663ZM19.8334 11.6666H22.1667C22.8111 11.6666 23.3334 12.189 23.3334 12.8333V15.1666C23.3334 15.811 22.8111 16.3333 22.1667 16.3333H19.8334C19.1891 16.3333 18.6667 15.811 18.6667 15.1666V12.8333C18.6667 12.189 19.1891 11.6666 19.8334 11.6666ZM5.83341 18.6666H8.16675C8.81108 18.6666 9.33341 19.189 9.33341 19.8333V22.1666C9.33341 22.811 8.81108 23.3333 8.16675 23.3333H5.83341C5.18908 23.3333 4.66675 22.811 4.66675 22.1666V19.8333C4.66675 19.189 5.18908 18.6666 5.83341 18.6666ZM12.8334 18.6666H15.1667C15.8111 18.6666 16.3334 19.189 16.3334 19.8333V22.1666C16.3334 22.811 15.8111 23.3333 15.1667 23.3333H12.8334C12.1891 23.3333 11.6667 22.811 11.6667 22.1666V19.8333C11.6667 19.189 12.1891 18.6666 12.8334 18.6666ZM19.8334 18.6666H22.1667C22.8111 18.6666 23.3334 19.189 23.3334 19.8333V22.1666C23.3334 22.811 22.8111 23.3333 22.1667 23.3333H19.8334C19.1891 23.3333 18.6667 22.811 18.6667 22.1666V19.8333C18.6667 19.189 19.1891 18.6666 19.8334 18.6666Z" fill="#B0B7C3"/>
</svg>
