<svg width="24" height="15" viewBox="0 0 24 15" fill="none" xmlns="http://www.w3.org/2000/svg">
<path fill-rule="evenodd" clip-rule="evenodd" d="M9.50826 11.0665H16.8274C17.6561 8.62665 21.114 8.65009 21.9347 11.0665H22.5463V7.54962C22.5463 7.11145 22.1872 6.75238 21.7492 6.75238C19.9517 6.75238 18.1541 6.75238 16.3566 6.75238C15.968 6.75238 15.6531 6.43744 15.6531 6.04907V1.82867H3.60182V2.67261H4.8951C5.82106 2.67261 5.82106 4.07941 4.8951 4.07941H3.60182V5.43933H6.97811C7.90425 5.43933 7.90425 6.84613 6.97811 6.84613H3.60182V11.0663H4.40108C5.22963 8.62646 8.68776 8.65027 9.50826 11.0665ZM2.19502 4.07941H1.35109C0.424942 4.07941 0.424942 2.67261 1.35109 2.67261H2.19502V1.12518C2.19502 0.736816 2.50997 0.421875 2.89852 0.421875C3.97499 0.421875 15.8056 0.426453 15.8056 0.421875C17.7312 0.421875 19.4084 1.37512 20.3953 3.03131L21.7745 5.34576C22.9781 5.35931 23.9531 6.34387 23.9531 7.54944V11.7698C23.9531 12.1582 23.6381 12.4731 23.2498 12.4731H22.0235C21.7714 13.7146 20.6744 14.6301 19.3811 14.6301C18.0879 14.6301 16.9909 13.7146 16.7387 12.4731H9.59707C9.34493 13.7146 8.24794 14.6301 6.95467 14.6301C5.6614 14.6301 4.56441 13.7146 4.31227 12.4731H2.89852C2.50997 12.4731 2.19502 12.1582 2.19502 11.7698V9.65955H0.647599C-0.278366 9.65955 -0.278366 8.25293 0.647599 8.25293H2.19502V6.84613H0.647599C-0.278366 6.84613 -0.278366 5.43933 0.647599 5.43933H2.19502V4.07941ZM20.293 11.022C20.7965 11.5256 20.7965 12.3422 20.293 12.8458C19.4829 13.6558 18.0915 13.0796 18.0915 11.9339C18.0915 10.7882 19.4829 10.212 20.293 11.022ZM20.1419 5.34558H17.0599V2.01929C17.9573 2.30695 18.6912 2.91083 19.1918 3.7511L20.1419 5.34558ZM7.86654 11.022C8.37008 11.5256 8.37008 12.3422 7.86654 12.8458C7.05648 13.6558 5.66506 13.0796 5.66506 11.9339C5.66524 10.7882 7.05648 10.212 7.86654 11.022Z" fill="#5E38FF"/>
</svg>
