<svg width="19" height="21" viewBox="0 0 19 21" fill="none" xmlns="http://www.w3.org/2000/svg">
<path fill-rule="evenodd" clip-rule="evenodd" d="M12.7156 15.4738H5.49561C5.08161 15.4738 4.74561 15.1378 4.74561 14.7238C4.74561 14.3098 5.08161 13.9738 5.49561 13.9738H12.7156C13.1296 13.9738 13.4656 14.3098 13.4656 14.7238C13.4656 15.1378 13.1296 15.4738 12.7156 15.4738Z" fill="#5E38FF"/>
<path fill-rule="evenodd" clip-rule="evenodd" d="M12.7156 11.2872H5.49561C5.08161 11.2872 4.74561 10.9512 4.74561 10.5372C4.74561 10.1232 5.08161 9.78723 5.49561 9.78723H12.7156C13.1296 9.78723 13.4656 10.1232 13.4656 10.5372C13.4656 10.9512 13.1296 11.2872 12.7156 11.2872Z" fill="#5E38FF"/>
<path fill-rule="evenodd" clip-rule="evenodd" d="M8.25061 7.11047H5.49561C5.08161 7.11047 4.74561 6.77447 4.74561 6.36047C4.74561 5.94647 5.08161 5.61047 5.49561 5.61047H8.25061C8.66461 5.61047 9.00061 5.94647 9.00061 6.36047C9.00061 6.77447 8.66461 7.11047 8.25061 7.11047Z" fill="#5E38FF"/>
<mask id="mask0_101:434" style="mask-type:alpha" maskUnits="userSpaceOnUse" x="0" y="0" width="19" height="21">
<path fill-rule="evenodd" clip-rule="evenodd" d="M0 0.500244H18.1647V20.41H0V0.500244Z" fill="white"/>
</mask>
<g mask="url(#mask0_101:434)">
<path fill-rule="evenodd" clip-rule="evenodd" d="M12.9085 2L5.21951 2.004C2.89151 2.018 1.49951 3.458 1.49951 5.857V15.053C1.49951 17.468 2.90451 18.91 5.25551 18.91L12.9445 18.907C15.2725 18.893 16.6645 17.451 16.6645 15.053V5.857C16.6645 3.442 15.2605 2 12.9085 2ZM5.25651 20.41C2.11251 20.41 -0.000488281 18.257 -0.000488281 15.053V5.857C-0.000488281 2.624 2.04651 0.523 5.21451 0.504L12.9075 0.5H12.9085C16.0525 0.5 18.1645 2.653 18.1645 5.857V15.053C18.1645 18.285 16.1175 20.387 12.9495 20.407L5.25651 20.41Z" fill="#5E38FF"/>
</g>
</svg>
