<svg width="24" height="25" viewBox="0 0 24 25" fill="none" xmlns="http://www.w3.org/2000/svg">
<path d="M10.4902 2.73006L5.50016 4.61006C4.35016 5.04006 3.41016 6.40006 3.41016 7.62006V15.0501C3.41016 16.2301 4.19016 17.7801 5.14016 18.4901L9.44016 21.7001C10.8502 22.7601 13.1702 22.7601 14.5802 21.7001L18.8802 18.4901C19.8302 17.7801 20.6102 16.2301 20.6102 15.0501V7.62006C20.6102 6.39006 19.6702 5.03006 18.5202 4.60006L13.5302 2.73006C12.6802 2.42006 11.3202 2.42006 10.4902 2.73006Z" stroke="#5E38FF" stroke-width="1.5" stroke-linecap="round" stroke-linejoin="round"/>
<path d="M12 13C13.1046 13 14 12.1046 14 11C14 9.89543 13.1046 9 12 9C10.8954 9 10 9.89543 10 11C10 12.1046 10.8954 13 12 13Z" stroke="#5E38FF" stroke-width="1.5" stroke-miterlimit="10" stroke-linecap="round" stroke-linejoin="round"/>
<path d="M12 13V16" stroke="#5E38FF" stroke-width="1.5" stroke-miterlimit="10" stroke-linecap="round" stroke-linejoin="round"/>
</svg>
