<svg width="24" height="25" viewBox="0 0 24 25" fill="none" xmlns="http://www.w3.org/2000/svg">
<path d="M23.0002 18.41C23.0202 19.16 22.8202 19.87 22.4602 20.48C22.2602 20.84 21.9902 21.1701 21.6902 21.4401C21.0002 22.0801 20.0902 22.4701 19.0802 22.5001C17.6202 22.5301 16.3302 21.7801 15.6202 20.6301C15.2402 20.0401 15.0102 19.3301 15.0002 18.5801C14.9702 17.3201 15.5302 16.1801 16.4302 15.4301C17.1102 14.8701 17.9702 14.5201 18.9102 14.5001C21.1202 14.4501 22.9502 16.2 23.0002 18.41Z" stroke="#5E38FF" stroke-width="1.5" stroke-miterlimit="10" stroke-linecap="round" stroke-linejoin="round"/>
<path d="M17.4404 18.53L18.4504 19.49L20.5404 17.47" stroke="#5E38FF" stroke-width="1.5" stroke-linecap="round" stroke-linejoin="round"/>
<path d="M3.16992 7.93994L11.9999 13.0499L20.7699 7.96991" stroke="#5E38FF" stroke-width="1.5" stroke-linecap="round" stroke-linejoin="round"/>
<path d="M12 22.1099V13.0399" stroke="#5E38FF" stroke-width="1.5" stroke-linecap="round" stroke-linejoin="round"/>
<path d="M21.6101 9.67V15.33C21.6101 15.38 21.6101 15.42 21.6001 15.47C20.9001 14.86 20.0001 14.5 19.0001 14.5C18.0601 14.5 17.1901 14.83 16.5001 15.38C15.5801 16.11 15.0001 17.24 15.0001 18.5C15.0001 19.25 15.2101 19.96 15.5801 20.56C15.6701 20.72 15.7801 20.87 15.9001 21.01L14.0701 22.02C12.9301 22.66 11.0701 22.66 9.93011 22.02L4.59012 19.06C3.38012 18.39 2.39014 16.71 2.39014 15.33V9.67C2.39014 8.29 3.38012 6.61002 4.59012 5.94002L9.93011 2.98C11.0701 2.34 12.9301 2.34 14.0701 2.98L19.4101 5.94002C20.6201 6.61002 21.6101 8.29 21.6101 9.67Z" stroke="#5E38FF" stroke-width="1.5" stroke-linecap="round" stroke-linejoin="round"/>
</svg>
